<svg width="162" height="22" viewBox="0 0 162 22" xmlns="http://www.w3.org/2000/svg"><title>logo</title><g fill="none" fill-rule="evenodd"><path d="M71.755 6.156l-3.427 7.373a8.54 8.54 0 0 0-.412.953c0-.031-.121-.354-.365-.968l-3.077-7.358h-.412l-1.614 10.03h.685l1.143-7.542c.02-.112.04-.253.06-.422a14.721 14.721 0 0 1 .077-.576c.122.368.244.691.365.968l2.88 7.05h.41l3.246-7.035.441-1.014c0 .164.036.497.107.999l1.082 7.573h.73L72.168 6.156h-.412z" stroke="#4C566F" stroke-width=".5" stroke-linecap="round" stroke-linejoin="round" fill="#4C566F"/><path stroke="#4C566F" stroke-width=".56" stroke-linecap="round" stroke-linejoin="round" fill="#4C566F" d="M79.341 16.187h.701v-9.97h-.7zM94.499 13.437c0 .718.01 1.199.03 1.444a15.91 15.91 0 0 1-.312-.407 14.67 14.67 0 0 0-.647-.79l-6.49-7.528h-.335v10.031h.7V9.013c0-.757-.009-1.238-.03-1.444l.838 1.03 6.612 7.65h.335V6.217h-.701v7.22zM108.202 14.605c-.788.706-1.831 1.06-3.131 1.06-1.016 0-1.829-.036-2.437-.108v-8.74c.497-.042 1.209-.062 2.132-.062 1.3 0 2.394.42 3.283 1.26.889.84 1.333 1.972 1.333 3.395s-.394 2.488-1.18 3.195m-3.436-8.48c-1.097 0-2.051.03-2.864.092v9.94c1.087.101 2.143.153 3.169.153 1.482 0 2.694-.41 3.634-1.229.938-.82 1.408-2.043 1.408-3.671 0-1.629-.51-2.917-1.53-3.864-1.022-.947-2.293-1.42-3.817-1.42M120.647 15.073c-.431.374-.978.56-1.637.56-.976 0-1.681-.02-2.118-.06v-3.337c1.003-.334 1.489-.592 2.15-.944.69.174 1.174.453 1.605.878.431.425.648.922.648 1.49s-.217 1.04-.648 1.413zm-3.755-8.272a20.2 20.2 0 0 1 1.493-.046c.58 0 1.075.135 1.492.407.417.272.625.658.625 1.16 0 .502-.15.96-.449 1.375-.3.415-.665.697-1.043.945-.379.247-1.364.703-2.118.931V6.801zm2.834 4.04a3.043 3.043 0 0 0 1.036-1.029c.284-.45.426-.942.426-1.474 0-.707-.272-1.245-.815-1.614-.544-.369-1.196-.553-1.957-.553-.762 0-1.504.03-2.225.093v9.892c.772.072 1.661.108 2.667.108 1.004 0 1.783-.225 2.338-.676.553-.45.83-1.116.83-1.997 0-.635-.219-1.204-.655-1.705a3.407 3.407 0 0 0-1.645-1.044zM128.667 6.217h-.7v9.97h5.24v-.645h-4.54zM138.325 16.187h.7v-9.97h-.7zM148.867 11.425a22.555 22.555 0 0 0-1.058-.76 9.618 9.618 0 0 1-1.258-1.007c-.457-.44-.685-.937-.685-1.49 0-.481.172-.854.518-1.121.345-.266.793-.4 1.34-.4.823 0 1.55.154 2.179.461l.259-.568c-.68-.338-1.447-.507-2.3-.507-.853 0-1.521.195-2.004.584-.482.39-.723.927-.723 1.613 0 .686.259 1.29.777 1.812.274.267.513.479.716.638.202.159.56.417 1.074.776.512.358.921.69 1.226.998.436.43.655.902.655 1.413 0 .595-.216 1.055-.648 1.383-.43.328-1.033.491-1.805.491-.771 0-1.502-.235-2.192-.706l-.367.537c.68.533 1.526.8 2.537.8 1.01 0 1.797-.218 2.361-.653.564-.435.846-1.078.846-1.929 0-.654-.25-1.233-.747-1.735a9.936 9.936 0 0 0-.701-.63M160.002 12.055a9.912 9.912 0 0 0-.7-.63 21.966 21.966 0 0 0-1.059-.76 9.565 9.565 0 0 1-1.257-1.007c-.457-.44-.685-.937-.685-1.49 0-.48.173-.855.518-1.121.345-.266.792-.4 1.34-.4.823 0 1.55.154 2.179.461l.258-.568c-.68-.338-1.447-.507-2.3-.507-.853 0-1.52.194-2.003.584-.482.389-.723.926-.723 1.613 0 .686.258 1.29.776 1.812.275.266.513.48.716.638.204.159.56.417 1.075.776.511.358.92.691 1.226.998.437.43.654.9.654 1.414 0 .594-.215 1.054-.646 1.382-.433.328-1.034.492-1.806.492s-1.503-.236-2.194-.707l-.365.538c.68.533 1.526.799 2.537.799 1.01 0 1.797-.218 2.36-.654.564-.435.846-1.078.846-1.927 0-.656-.25-1.234-.747-1.736M46.831 8.15c-.413.128-.982.378-1.642.65-.33.131-.696.26-1.074.36-.405.104-.807.172-1.25.245a16.67 16.67 0 0 1-2.763.18c-.47-.004-.939-.029-1.394-.09-.446-.065-.921-.14-1.387-.192a11.377 11.377 0 0 0-2.535-.002 7.999 7.999 0 0 0-1.743.4c-.405.148-.62.27-.62.27s.24-.055.657-.117c.416-.068 1.016-.103 1.729-.09.713.016 1.54.096 2.416.245.435.067.88.186 1.377.259.49.075.989.112 1.487.124.998.008 1.99-.086 2.901-.288.45-.092.904-.226 1.295-.368a6.783 6.783 0 0 0 1.102-.52c.647-.366 1.128-.733 1.504-.921.366-.203.607-.264.607-.264l-.175.013c-.114.017-.287.037-.492.106"/><path d="M49.591 2.642c-.964-.453-2.403-.989-4.2-1.364a20.96 20.96 0 0 0-6.25-.323c-1.165.094-2.34.386-3.484.807-1.144.422-2.27.965-3.308 1.657-1.043.687-2 1.528-2.758 2.523-.802 1.028-1.245 2.116-1.668 3.222-.818 2.227-.843 4.451-.836 6.28.019 1.843.174 3.368.261 4.435a54.98 54.98 0 0 0 .17 1.673l-.002-1.682c-.01-1.069.001-2.598.05-4.42.036-.91.1-1.895.25-2.917.162-1.017.375-2.08.777-3.12.402-1.018.901-2.142 1.606-2.991.722-.894 1.61-1.68 2.578-2.356a15.585 15.585 0 0 1 6.43-2.502 19.964 19.964 0 0 1 3.225-.177 22.52 22.52 0 0 1 2.892.27c1.784.266 3.237.711 4.217 1.104.494.188.872.365 1.126.49l.39.199-.374-.228a12.055 12.055 0 0 0-1.092-.58M17.982 9.854c.417.062.657.116.657.116s-.215-.121-.62-.27a8.006 8.006 0 0 0-1.743-.399 11.377 11.377 0 0 0-2.535.003c-.465.05-.94.127-1.387.19-.455.062-.924.086-1.394.09-.94.025-1.887-.053-2.762-.18a13.56 13.56 0 0 1-1.25-.245A9.422 9.422 0 0 1 5.872 8.8c-.66-.272-1.228-.521-1.642-.65-.205-.069-.378-.088-.492-.106l-.174-.013s.24.06.607.265c.376.186.857.553 1.504.921.324.183.683.371 1.101.518a9.19 9.19 0 0 0 1.295.368c.91.202 1.903.297 2.9.29.5-.012 1-.05 1.488-.125.497-.073.942-.192 1.377-.26a17 17 0 0 1 2.416-.243c.713-.013 1.313.02 1.729.089" stroke="#4C566F" stroke-width=".56" stroke-linecap="round" stroke-linejoin="round" fill="#4C566F"/><path d="M5.738 1.657c.891-.135 1.862-.246 2.891-.27a19.951 19.951 0 0 1 3.226.177 15.576 15.576 0 0 1 6.43 2.502c.968.676 1.856 1.462 2.578 2.356.705.85 1.205 1.972 1.606 2.99.401 1.042.615 2.103.777 3.121a27.29 27.29 0 0 1 .251 2.917c.048 1.822.06 3.35.05 4.42l-.004 1.682s.075-.608.172-1.673c.085-1.068.24-2.592.26-4.435.007-1.829-.018-4.053-.836-6.28-.423-1.107-.865-2.194-1.668-3.223-.76-.994-1.716-1.836-2.757-2.522a15.895 15.895 0 0 0-3.309-1.657c-1.144-.421-2.32-.713-3.484-.807A20.623 20.623 0 0 0 8.608.89a21.113 21.113 0 0 0-2.937.387c-1.797.375-3.236.911-4.2 1.364-.483.226-.848.434-1.093.58l-.372.228.388-.198c.255-.127.633-.304 1.127-.491.98-.393 2.433-.839 4.217-1.104" stroke="#4C566F" stroke-width=".56" stroke-linecap="round" stroke-linejoin="round" fill="#4C566F"/><path d="M-9 30h180.998V-8H-9z"/></g></svg>